<svg id="Layer_1" enable-background="new 0 0 512 512" height="512" viewBox="0 0 512 512" width="512" xmlns="http://www.w3.org/2000/svg"><g><path d="m7.5 91h497v330h-497z" fill="#4ba543"/><path d="m474.5 91h30v330h-30z" fill="#43a047"/><path d="m71 256 185-129 185 129-185 129z" fill="#fece3f"/><circle cx="256" cy="256" fill="#2387eb" r="72"/><path d="m256 184c-5.145 0-10.16.55-15 1.576 32.563 6.903 57 35.805 57 70.424s-24.437 63.522-57 70.424c4.84 1.026 9.855 1.576 15 1.576 39.765 0 72-32.236 72-72 0-39.765-32.235-72-72-72z" fill="#207bd6"/><path d="m185.255 242.652 139.05 36.112c2.385-7.157 3.695-14.806 3.695-22.764 0-2.488-.126-4.946-.373-7.369l-130.598-33.917c-5.765 8.219-9.852 17.694-11.774 27.938z" fill="#efefef"/><path d="m296.323 271.497 27.983 7.267c2.384-7.157 3.694-14.806 3.694-22.764 0-2.488-.126-4.946-.373-7.369l-31.305-8.13c1.096 4.992 1.678 10.177 1.678 15.499 0 5.321-.582 10.505-1.677 15.497z" fill="#dcdcdc"/><g><path d="m7.5 359.269c4.142 0 7.5-3.358 7.5-7.5v-253.269h49.385c4.142 0 7.5-3.358 7.5-7.5s-3.358-7.5-7.5-7.5h-56.885c-4.142 0-7.5 3.358-7.5 7.5v260.769c0 4.142 3.358 7.5 7.5 7.5z"/><path d="m504.5 83.5h-408.115c-4.142 0-7.5 3.358-7.5 7.5s3.358 7.5 7.5 7.5h400.615v315h-482v-29.731c0-4.142-3.358-7.5-7.5-7.5s-7.5 3.358-7.5 7.5v37.231c0 4.142 3.358 7.5 7.5 7.5h497c4.142 0 7.5-3.358 7.5-7.5v-330c0-4.142-3.358-7.5-7.5-7.5z"/><path d="m379.534 213.141c2.369-3.398 1.536-8.073-1.862-10.442l-117.382-81.851c-2.578-1.798-6.002-1.798-8.58 0l-185 129c-2.011 1.402-3.21 3.7-3.21 6.152s1.199 4.75 3.21 6.152l185 129c1.289.899 2.79 1.348 4.29 1.348s3.001-.449 4.29-1.348l185-129c2.011-1.402 3.21-3.7 3.21-6.152s-1.199-4.75-3.21-6.152l-41.392-28.862c-3.398-2.371-8.073-1.535-10.441 1.862-2.369 3.397-1.536 8.072 1.862 10.441l32.569 22.711-171.888 119.856-171.888-119.856 171.888-119.856 113.093 78.859c3.396 2.369 8.073 1.535 10.441-1.862z"/><path d="m176.5 256c0 43.836 35.664 79.5 79.5 79.5s79.5-35.664 79.5-79.5-35.664-79.5-79.5-79.5-79.5 35.664-79.5 79.5zm144 0c0 4.682-.514 9.245-1.466 13.646l-124.745-32.397c1.495-4.91 3.565-9.568 6.124-13.907l120.05 31.178c.011.493.037.983.037 1.48zm-64.5 64.5c-35.565 0-64.5-28.935-64.5-64.5 0-1.325.053-2.638.132-3.943l122.525 31.821c-10.417 21.646-32.571 36.622-58.157 36.622zm62.037-82.108-107.645-27.956c11.681-11.693 27.814-18.936 45.608-18.936 29.46 0 54.353 19.861 62.037 46.892z"/></g></g></svg>